<svg xmlns="http://www.w3.org/2000/svg" viewBox="0 0 980 250" role="img" aria-label="ЦУИМ — Центральный универсальный интернет магазин"><defs><linearGradient id="g" x1="0" y1="0" x2="1" y2="1"><stop stop-color="#06b6d4"/><stop offset=".45" stop-color="#2563eb"/><stop offset="1" stop-color="#9333ea"/></linearGradient><linearGradient id="p" x1="0" y1="0" x2="1" y2="0"><stop stop-color="#c026d3"/><stop offset="1" stop-color="#2563eb"/></linearGradient></defs><g fill="none" stroke="url(#g)" stroke-width="12" stroke-linecap="round" stroke-linejoin="round"><path d="M72 64h34l27 96h144l23-72H122"/><circle cx="162" cy="184" r="14" fill="#0b2f78" stroke="none"/><circle cx="260" cy="184" r="14" fill="#0b2f78" stroke="none"/><path d="M132 83a78 78 0 0 1 144-12M153 58h104M183 31c-20 27-28 54-25 80M226 31c19 27 27 54 24 80"/></g><g stroke="url(#p)" stroke-width="9" stroke-linecap="round"><path d="M42 102h48"/><path d="M28 126h70"/><path d="M48 150h48"/></g><text x="340" y="128" font-family="Arial,Helvetica,sans-serif" font-size="112" font-weight="900" fill="#082d70">ЦУИМ</text><path d="M340 151h570" stroke="url(#p)" stroke-width="4"/><text x="342" y="185" font-family="Arial,Helvetica,sans-serif" font-size="20" font-weight="700" letter-spacing="2.2" fill="#163b78">ЦЕНТРАЛЬНЫЙ УНИВЕРСАЛЬНЫЙ ИНТЕРНЕТ МАГАЗИН</text><text x="342" y="222" font-family="Arial,Helvetica,sans-serif" font-size="18" font-weight="700" letter-spacing="3" fill="#334155">ТОВАРЫ  •  УСЛУГИ  •  РЕШЕНИЯ  •  ДЛЯ ВСЕХ</text></svg>